<svg xmlns="http://www.w3.org/2000/svg" width="512" height="512" viewBox="0 0 512 512">
  <defs>
    <linearGradient id="bg" x1="0%" y1="0%" x2="100%" y2="100%">
      <stop offset="0%" style="stop-color:#F97316"/>
      <stop offset="100%" style="stop-color:#EA580C"/>
    </linearGradient>
  </defs>
  <rect width="512" height="512" rx="100" fill="url(#bg)"/>
  <g transform="translate(256,256) scale(1)">
    <path d="M160 160h192l-24 192H184l-24-192z" fill="white" opacity="0.9"/>
    <circle cx="196" cy="380" r="18" fill="white" opacity="0.9"/>
    <circle cx="340" cy="380" r="18" fill="white" opacity="0.9"/>
    <path d="M200 180l16-40h96l16 40H200z" fill="white" opacity="0.95"/>
    <path d="M176 160h160l-12-24c-8-16-28-16-36 0l-8 16h-48l-8-16c-8-16-28-16-36 0l-12 24z" fill="white" opacity="0.85"/>
    <path d="M220 100c0 0 8-12 36-12s36 12 36 12" stroke="white" stroke-width="6" fill="none" stroke-linecap="round" opacity="0.6"/>
    <path d="M256 88l12 24h-24l12-24z" fill="white" opacity="0.7"/>
  </g>
</svg>
